<svg width="134" height="33" viewBox="0 0 134 33" fill="none" xmlns="http://www.w3.org/2000/svg">
<path d="M113.872 18.3526C113.604 18.6097 114.024 19.5211 114.217 19.7707C114.915 20.6784 116.504 20.5857 117.539 20.6094L121.847 20.2936C121.724 20.7833 122.33 22.5768 122.057 22.833C121.671 23.1961 119.283 23.6272 118.665 23.6972C115.093 24.099 110.781 23.8995 109.723 19.7982C109.057 17.2171 109.144 12.6922 111.467 10.9346C113.476 9.41433 118.999 9.42094 121.006 10.9346C122.78 12.2724 123.153 15.8963 121.431 17.3447C119.602 18.8849 114.419 17.8279 113.872 18.3526ZM115.487 12.7669C113.524 13.0108 113.048 15.538 114.834 15.7394C115.321 15.7942 117.623 15.8027 117.976 15.6609C118.807 15.3281 118.779 13.7397 118.215 13.1989C117.637 12.644 116.245 12.6723 115.487 12.7669H115.487Z" fill="#1C1A17"/>
<path d="M106.784 23.5065H102.836V14.3451C102.836 14.0965 102.605 13.5122 102.357 13.3732C101.347 12.8097 98.7775 13.8091 97.8501 14.4482V23.5065H93.9548C93.9435 23.5065 93.7988 23.3619 93.7988 23.3515V10.3081C93.7988 10.2967 93.9435 10.153 93.9548 10.153H97.8501V11.7055L99.3023 10.8234C101.352 9.68032 105.225 9.01283 106.422 11.5996C106.503 11.7726 106.784 12.4618 106.784 12.5857V23.5065Z" fill="#1C1A17"/>
<path d="M130.259 6.42188V10.1488H133.998V12.8405H130.414C130.403 12.8405 130.258 12.9852 130.258 12.9956V19.4142C130.258 19.4719 130.462 20.0146 130.52 20.0845C131.051 20.7312 133.195 20.162 133.43 20.4967C133.521 20.6253 133.998 23.4891 133.889 23.6025C131.557 23.8644 127.861 24.4752 126.635 21.8856C126.57 21.7476 126.311 21.0527 126.311 20.9666V12.9956C126.311 12.9842 126.166 12.8405 126.155 12.8405H123.922V10.1488H126.311V6.42188H130.258H130.259Z" fill="#1C1A17"/>
<path d="M91.098 23.5058H87.1508V14.2404C87.1508 13.796 86.713 13.3271 86.2611 13.2637C84.9129 13.0737 83.8304 13.6911 82.7885 14.4474V23.5058H78.9452V14.2404C78.9452 14.0702 78.6767 13.5417 78.4999 13.432C77.4467 12.7797 75.4395 13.693 74.582 14.4474V23.5058H70.6348V10.1523H74.582V11.6016L75.8631 10.7555C78.0253 9.45738 81.4979 9.18225 82.6325 11.9099C84.3031 9.89417 89.1948 8.67076 90.664 11.3606C90.7482 11.5156 91.098 12.3722 91.098 12.4809V23.5058Z" fill="#FFA44E"/>
<path d="M59.9139 9.86829C64.4606 9.43244 68.0098 10.3656 68.3539 15.4757C68.7671 21.6117 66.7807 24.2514 60.4046 23.8117C56.2324 23.5243 54.7669 21.347 54.6336 17.3468C54.5031 13.4109 55.5422 10.2871 59.9139 9.86735V9.86829ZM63.4319 20.2588C63.6286 20.0621 63.8564 19.5374 63.9359 19.2604C64.2951 18.0048 64.2876 15.2186 63.7959 14.0131C63.5047 13.2984 63.0925 13.01 62.3286 12.8871C61.3642 12.7321 60.0378 12.7462 59.4327 13.634C58.6811 14.7364 58.6584 19.0231 59.4724 20.081C60.1928 21.0161 62.6226 21.0652 63.431 20.2588H63.4319Z" fill="#FFA44E"/>
<path d="M41.1185 20.3042L41.5042 22.7747C41.3823 22.9732 39.7968 23.3797 39.4715 23.4478C34.5259 24.4831 29.1576 24.052 28.7672 17.9642C28.4958 13.7267 29.3628 10.1615 34.2205 9.82961C37.2327 9.6235 41.4882 9.92888 41.8588 13.7163C42.4062 19.3153 37.2856 18.0711 33.5001 18.2214C32.9442 18.3273 33.1645 18.956 33.3214 19.3257C33.9085 20.7117 35.668 20.5784 36.9302 20.6039L41.1185 20.3042ZM37.5664 13.1812C36.9869 12.6026 34.9438 12.648 34.2016 12.9155C33.0453 13.3315 32.4469 15.5373 34.2252 15.7349C34.7623 15.7944 37.0247 15.801 37.4218 15.6072C38.1195 15.2678 38.0581 13.6719 37.5664 13.1812Z" fill="#FFA44E"/>
<path d="M54.0136 9.83594L53.5929 13.5572C51.8523 13.4683 50.1666 13.942 48.5083 14.3911V23.3454C48.5083 23.3568 48.3636 23.5005 48.3523 23.5005H44.457V10.147H48.3523C48.6019 10.147 48.443 10.9317 48.5584 11.0773C49.293 10.7568 50.0437 10.4401 50.817 10.2226C51.1631 10.1252 52.117 9.83594 52.4026 9.83594H54.0127H54.0136Z" fill="#FFA44E"/>
<path d="M11.0107 4.57031L0 15.5432V14.819C0.285525 14.107 0.389524 13.3431 0.649522 12.6198C1.92777 9.06024 4.9409 6.21066 8.54211 5.061L10.3876 4.57031H11.0107Z" fill="#1C1A17"/>
<path d="M17.6588 5.6082L1.0397 22.1696C0.897885 21.4435 -0.0617434 19.7417 0.306035 19.1101L14.536 4.92843C14.7222 4.71381 14.9434 4.77526 15.1893 4.80457C15.9796 4.89723 16.874 5.42951 17.6578 5.6082H17.6588Z" fill="#1C1A17"/>
<path d="M23.4307 11.6118C23.6774 11.557 23.9422 12.4457 24.0235 12.666C24.1681 13.0602 24.5992 14.2505 24.4187 14.5607L9.96752 28.9503C9.71792 29.061 7.29002 28.3084 7.11133 28.0701L23.4307 11.6118Z" fill="#1C1A17"/>
<path d="M15.4783 13.6797V15.6982L4.67375 26.4706C4.59528 26.5396 4.54801 26.5122 4.46764 26.4706C4.31826 26.3931 3.53827 25.6566 3.37471 25.4826C3.15915 25.2529 2.53893 24.6384 2.79893 24.3897L13.5562 13.6806H15.4783V13.6797Z" fill="#FFA44E"/>
<path d="M13.7109 29.1032L24.6167 18.2344C24.2479 23.8153 19.2995 28.7364 13.7109 29.1032Z" fill="#1C1A17"/>
</svg>
